<?xml version="1.0" standalone="no"?>
<!DOCTYPE svg PUBLIC "-//W3C//DTD SVG 20010904//EN"
 "http://www.w3.org/TR/2001/REC-SVG-20010904/DTD/svg10.dtd">
<svg version="1.0" xmlns="http://www.w3.org/2000/svg"
 width="700.000000pt" height="700.000000pt" viewBox="0 0 700.000000 700.000000"
 preserveAspectRatio="xMidYMid meet">
<metadata>
Created by potrace 1.11, written by Peter Selinger 2001-2013
</metadata>
<g transform="translate(0.000000,700.000000) scale(0.100000,-0.100000)"
fill="#000000" stroke="none">
<path d="M2765 6600 c-20 -58 -51 -148 -70 -200 -18 -52 -68 -194 -110 -315
-42 -121 -85 -242 -95 -270 -18 -47 -108 -304 -206 -590 -25 -71 -56 -159 -69
-195 -30 -81 -245 -696 -255 -730 -5 -14 -25 -70 -45 -125 -20 -55 -38 -107
-40 -115 -2 -8 -18 -53 -35 -100 -17 -47 -40 -110 -50 -140 -9 -30 -46 -134
-80 -230 -34 -96 -81 -231 -105 -300 -24 -69 -67 -190 -95 -270 -28 -80 -62
-176 -75 -215 -13 -38 -34 -97 -46 -130 -11 -33 -37 -105 -56 -160 -19 -55
-47 -136 -63 -180 -37 -104 -229 -653 -320 -915 -39 -113 -82 -234 -95 -270
-13 -36 -60 -168 -104 -295 -44 -126 -102 -295 -130 -374 -28 -80 -51 -147
-51 -151 0 -3 275 -6 612 -6 l612 1 248 745 c136 410 255 763 263 786 l15 40
1191 0 c1048 -1 1191 -3 1198 -16 5 -8 124 -362 266 -786 l258 -770 614 0
c337 0 613 1 613 1 0 2 -42 121 -120 345 -71 200 -168 479 -229 655 -23 66
-46 129 -50 140 -5 11 -21 56 -36 100 -15 44 -40 116 -55 160 -75 212 -226
644 -266 760 -25 72 -50 141 -56 155 -5 14 -18 50 -28 80 -19 56 -121 347
-159 455 -12 33 -31 87 -42 120 -12 33 -45 128 -74 210 -29 83 -71 202 -93
265 -34 97 -212 605 -338 963 -19 53 -50 143 -70 200 -73 209 -96 274 -124
352 -16 44 -45 126 -64 183 -83 236 -109 311 -136 387 -33 94 -65 184 -194
553 -53 150 -99 279 -103 285 -6 10 -175 12 -715 12 l-707 0 -36 -105z m774
-1218 c11 -23 851 -2536 851 -2548 0 -5 -342 -9 -877 -9 -869 1 -878 1 -875
20 2 11 157 477 343 1035 187 558 353 1056 369 1105 22 69 101 304 134 400 6
17 45 15 55 -3z"/>
</g>
</svg>
